::Release Info::
================
Release Title: Fatherland (1994) Christopher Menaul
Encode date: UTC 2013-01-16 01:06:46

::IMDB and TMDB Info::
======================
TMDB Link: http://www.themoviedb.org/movie/11248
IMDB Link: http://www.imdb.com/title/tt0109779
Storyline: Fictional account of what might have happened if Hitler had won the war. It is now the 1960s and Germany's war crimes have so far been kept a secret. Hitler wants to talk peace with the US president. An American journalist and a German homicide cop stumble into a plot to destroy all evidence of the genocide.
Genre: Drama | Thriller
Release date: 26/11/1994

::Actors::
==========
Rutger Hauer ... SS-Sturmbannf체hrer Xavier March
Miranda Richardson ... Charlie Maguire
Peter Vaughan ... SS-Oberstgruppenf체hrer Artur Nebe
Michael Kitchen ... SS-Untersturmf체hrer Max J채ger
Jean Marsh ... Anna von Hagen

General
=======
Complete name : Fatherland (1994) Christopher Menaul.mp4
Format : MPEG-4
Format profile : Base Media / Version 2
Codec ID : mp42
File size : 373 MiB
Duration : 1h 45mn
Overall bit rate mode : Variable
Overall bit rate : 492 Kbps
Encoded date : UTC 2013-01-16 01:06:46
Tagged date : UTC 2013-01-16 01:06:46
gsst : 0
gstd : 6353581
gssd : BADC20FA1HH1367356571295655
gshh :

Video
=====
ID : 1
Format : AVC
Format/Info : Advanced Video Codec
Format profile : Baseline@L2.2
Format settings, CABAC : No
Format settings, ReFrames : 1 frame
Codec ID : avc1
Codec ID/Info : Advanced Video Coding
Duration : 1h 45mn
Bit rate : 418 Kbps
Maximum bit rate : 1 427 Kbps
Width : 552 pixels
Height : 360 pixels
Display aspect ratio : 3:2
Frame rate mode : Constant
Frame rate : 25.000 fps
Color space : YUV
Chroma subsampling : 4:2:0
Bit depth : 8 bits
Scan type : Progressive
Bits/(Pixel*Frame) : 0.084
Stream size : 317 MiB (85%)
Tagged date : UTC 2013-01-16 01:06:50

Audio
=====
ID : 2
Format : AAC
Format/Info : Advanced Audio Codec
Format profile : LC
Codec ID : 40
Duration : 1h 45mn
Bit rate mode : Variable
Bit rate : 72.0 Kbps
Maximum bit rate : 76.4 Kbps
Channel(s) : 1 channel
Channel positions : Front: C
Sampling rate : 44.1 KHz
Compression mode : Lossy
Stream size : 54.5 MiB (15%)
Title : IsoMedia File Produced by Google, 5-11-2011
Encoded date : UTC 2013-01-16 01:06:48
Tagged date : UTC 2013-01-16 01:06:50